<svg width="320" height="349" viewBox="0 0 320 349" fill="none" xmlns="http://www.w3.org/2000/svg">
<g filter="url(#filter0_d)">
<g clip-path="url(#clip0)">
<path d="M160.004 271.067C220.758 271.067 270.009 221.775 270.009 160.971C270.009 100.166 220.758 50.8744 160.004 50.8744C99.2506 50.8744 50 100.166 50 160.971C50 221.775 99.2506 271.067 160.004 271.067Z" fill="#1D1D1F"/>
<g filter="url(#filter1_d)">
<path d="M150.757 213.942C158.29 199.435 172.118 188.798 182.403 176.332C183.765 174.678 185.084 173.006 186.35 171.282C186.982 170.402 187.589 169.522 188.204 168.642L188.442 168.317C190.489 165.063 192.274 161.65 193.778 158.111C194.217 157.082 194.657 156.035 195.017 154.979C195.096 154.751 195.65 152.903 195.694 152.797C196.125 151.187 196.529 149.577 196.863 147.941C197.241 146.085 197.566 144.22 197.812 142.337C197.924 141.398 198.02 140.457 198.102 139.513C198.102 139.143 198.164 138.193 198.173 137.885C198.182 135.999 198.094 134.114 197.909 132.237C197.795 131.128 197.593 130.046 197.452 128.946C197.452 128.762 197.346 128.366 197.285 128.067C196.879 126.575 196.392 125.106 195.826 123.668C195.544 122.946 195.228 122.234 194.903 121.53C194.771 121.345 194.252 120.43 194.024 120.122C193.312 119.014 192.512 117.993 191.738 116.929L191.457 116.533L191.193 116.286C189.758 114.846 188.218 113.514 186.587 112.301C186.306 112.099 185.286 111.421 185.101 111.333C184.275 110.858 183.449 110.392 182.614 109.952C180.855 108.993 179.009 108.104 177.199 107.198C172.944 105.052 168.232 102.887 164.734 99.6144C161.922 96.9596 159.836 93.6277 158.677 89.9368L157.543 89.7081C157.851 89.5409 158.158 89.365 158.422 89.1802C158.132 88.1948 157.877 87.1831 157.675 86.1537C157.419 84.7419 157.272 83.3124 157.235 81.878C153.727 82.0898 150.205 81.9009 146.74 81.3149C141.615 80.4791 136.701 78.6228 131.558 77.9366C131.787 77.9981 130.934 77.9366 130.169 77.9366C128.156 79.2655 126.046 80.4418 123.858 81.4557L122.724 82.01L122.293 82.2299C114.61 86.2417 111.534 90.7902 110.523 94.6525C109.119 99.9487 106.139 104.692 101.978 108.254L101.864 108.324C105.125 107.082 108.516 106.214 111.973 105.738C115.29 105.403 118.635 105.48 121.933 105.966C128.221 106.968 134.104 109.711 138.916 113.885C143.417 117.856 146.71 123.015 148.42 128.771C150.13 134.528 150.187 140.649 148.586 146.437C145.878 156.176 138.714 161.498 131.005 167.261C124.64 171.981 120 178.661 117.795 186.275C115.591 193.89 115.945 202.018 118.803 209.412C120.19 212.807 122.12 215.954 124.517 218.728C123.277 215.461 122.41 212.064 121.933 208.602C121.608 205.297 121.69 201.964 122.179 198.678C123.179 192.39 125.92 186.507 130.09 181.698C132.094 179.375 134.432 177.362 137.026 175.725C138.151 175.033 139.256 174.329 140.34 173.613C141.117 175.236 142.283 176.641 143.733 177.704C143.733 177.704 142.924 175.162 147.012 168.678C151.984 164.675 155.906 159.52 158.44 153.66C160.177 154.646 162.158 155.119 164.154 155.023C164.154 155.023 161.683 153.369 160.954 144.58C161.913 138.169 161.273 131.619 159.09 125.515C157.725 121.674 155.748 118.079 153.236 114.87C148.393 108.537 141.658 103.914 134.011 101.673C136.48 101.803 138.938 102.097 141.369 102.553C166.65 107.673 185.128 132.078 178.79 158.067C177.888 161.9 176.421 165.576 174.438 168.977C169.823 176.974 162.703 182.112 155.741 187.91C141.421 199.848 133.281 219.793 135.918 238.268C136.73 244.1 138.475 249.762 141.087 255.037C142.67 258.02 144.558 260.83 146.722 263.422C142.898 247.014 142.933 229.013 150.757 213.942Z" fill="url(#paint0_linear)"/>
</g>
<g filter="url(#filter2_d)">
<path d="M140.34 173.613C141.117 175.236 142.283 176.641 143.733 177.704C143.733 177.704 142.924 175.162 147.012 168.678C151.984 164.675 155.906 159.52 158.44 153.66C160.177 154.646 162.158 155.119 164.154 155.023C164.154 155.023 161.683 153.369 160.954 144.58C161.913 138.169 161.273 131.619 159.09 125.515C157.725 121.674 155.748 118.079 153.236 114.87C152.421 113.814 151.542 112.802 150.599 111.835C153.17 117.952 154.225 124.6 153.674 131.214C153.123 137.827 150.982 144.209 147.434 149.815C144.155 157.522 137.764 162.264 131.005 167.331C124.655 172.047 120.025 178.715 117.821 186.314C115.618 193.914 115.963 202.027 118.803 209.412C120.19 212.807 122.12 215.954 124.517 218.728C123.277 215.461 122.41 212.064 121.933 208.602C121.608 205.297 121.69 201.964 122.179 198.678C123.179 192.39 125.92 186.507 130.09 181.698C132.094 179.375 134.432 177.362 137.026 175.725C138.151 175.033 139.256 174.329 140.34 173.613Z" fill="url(#paint1_linear)"/>
</g>
<g filter="url(#filter3_dd)">
<path d="M206.225 156.352H206.155C207.552 145.973 206.118 135.409 202.005 125.779C201.419 124.354 200.769 122.955 200.054 121.583C202.878 120.375 205.438 118.623 207.587 116.427C207.587 116.427 201.548 117.5 187.932 105.289C179.539 97.2694 169.001 91.8599 157.596 89.7169C159.268 88.8174 160.828 87.7249 162.246 86.4617C167.432 81.8164 172.496 73.4585 168.602 59.4699C168.602 59.4699 165.569 68.1885 138.485 76.5905C138.526 74.4875 138.052 72.4066 137.105 70.5288C137.105 70.5288 136.226 75.6755 123.919 81.5085L122.785 82.0627L122.355 82.2827C119.918 83.4845 117.649 84.9988 115.604 86.7872C121.616 87.2032 127.462 88.9395 132.728 91.8727C137.994 94.8058 142.55 98.8638 146.071 103.758C168.874 110.796 184.75 133.732 178.772 158.076C177.87 161.908 176.404 165.585 174.421 168.985C169.806 176.983 162.686 182.121 155.723 187.918C141.421 199.848 133.281 219.793 135.918 238.268C136.73 244.1 138.475 249.762 141.087 255.037C143.701 260.02 147.191 264.49 151.39 268.234C149.827 263.246 148.782 258.11 148.269 252.908C147.979 248.069 148.274 243.213 149.148 238.444C150.812 229.653 154.825 221.478 160.76 214.787C163.405 211.79 166.456 209.178 169.823 207.027C169.059 211.285 167.714 212.473 167.714 212.473C175.203 211.593 178.262 207.564 179.475 204.168C179.809 203.227 180.451 201.529 181.014 199.769C187.387 195.089 193.197 189.467 197.153 182.754C197.259 182.561 197.373 182.376 197.487 182.191C201.364 184.927 206.735 186.88 214.189 186.951C214.198 186.951 207.236 182.015 206.225 156.352Z" fill="url(#paint2_linear)"/>
</g>
<path d="M140.34 173.613C141.117 175.236 142.283 176.641 143.733 177.704C143.733 177.704 142.924 175.162 147.012 168.678C151.984 164.675 155.906 159.52 158.44 153.66C160.177 154.646 162.158 155.119 164.154 155.023C164.154 155.023 162.088 153.616 161.174 146.63C157.87 153.427 152.932 159.296 146.802 163.71C140.673 168.125 133.544 170.947 126.055 171.924C124.864 173.227 123.777 174.621 122.803 176.094C118.357 182.641 116.129 190.443 116.447 198.353C116.653 202.139 117.448 205.87 118.803 209.412C120.19 212.807 122.12 215.954 124.517 218.728C123.277 215.461 122.41 212.064 121.933 208.602C121.608 205.297 121.69 201.964 122.179 198.678C123.179 192.39 125.92 186.507 130.09 181.698C132.094 179.375 134.432 177.362 137.026 175.725C138.151 175.033 139.256 174.329 140.34 173.613Z" fill="url(#paint3_linear)"/>
<path d="M146.59 226.356C152.664 211.725 165.657 202.76 178.377 194.385C181.277 192.476 184.169 190.549 186.939 188.455C188.239 187.464 189.514 186.437 190.762 185.376L190.833 185.323C191.343 184.804 191.861 184.303 192.362 183.783C193.76 182.323 194.903 180.687 196.23 179.173L196.318 179.077L196.397 178.927C196.722 178.329 197.065 177.757 197.382 177.167C198.1 175.812 198.748 174.42 199.324 172.997C199.553 172.452 200.599 168.977 200.388 169.953C201.164 166.982 201.751 163.964 202.146 160.918C202.322 159.501 202.427 158.085 202.533 156.66C202.427 157.953 202.586 154.768 202.577 153.941C202.542 150.273 202.296 146.61 201.838 142.97C201.654 141.519 201.443 140.076 201.197 138.633C201.047 137.753 200.88 136.873 200.704 135.994C200.634 135.65 200.45 134.806 200.388 134.489C199.685 131.615 198.853 128.771 197.891 125.955C197.399 124.548 196.889 123.149 196.327 121.767C196.045 121.064 194.569 118.31 195.351 119.55C192.222 114.395 188.881 109.688 186.754 104.286C178.559 96.8368 168.459 91.8112 157.578 89.7697C159.25 88.8702 160.811 87.7777 162.228 86.5145C167.415 81.8692 172.478 73.5112 168.584 59.5227C168.584 59.5227 165.551 68.2413 138.468 76.6433C138.508 74.5403 138.034 72.4594 137.088 70.5816C137.088 70.5816 136.208 75.5787 124.438 81.3149C133.468 82.1698 142.038 85.7001 149.053 91.4547C156.068 97.2093 161.209 104.927 163.819 113.621C176.24 124.301 182.992 140.894 178.763 158.129C177.861 161.961 176.395 165.638 174.412 169.038C169.797 177.035 162.677 182.173 155.715 187.971C141.421 199.848 133.281 219.793 135.918 238.268C136.73 244.1 138.475 249.762 141.087 255.037C141.412 255.644 141.747 256.234 142.089 256.797C141.861 246.486 142.485 236.263 146.59 226.356Z" fill="url(#paint4_linear)"/>
<path d="M146.186 232.928C150.124 218.966 157.314 207.151 169.041 198.37C173.7 194.851 178.763 191.93 183.545 188.605C184.943 187.637 186.314 186.643 187.642 185.587C188.16 185.173 190.657 182.895 189.136 184.408C190.235 183.351 191.28 182.238 192.266 181.074C192.652 180.599 193.013 180.097 193.373 179.604L193.487 179.385C194.147 178.126 194.797 176.877 195.351 175.566C195.474 175.267 195.58 174.968 195.694 174.686C195.58 174.898 195.606 174.757 196.089 173.675C196.77 171.028 197.29 168.343 197.645 165.633C197.821 164.252 197.935 162.871 198.032 161.481C198.032 161.754 198.085 158.842 198.085 158.358C198.085 155.56 197.944 152.762 197.742 149.973C197.329 144.105 196.652 138.237 195.861 132.378C195.606 130.495 195.333 128.621 194.982 126.747C194.903 126.325 194.419 123.914 194.446 123.905C193.73 121.013 192.753 118.192 191.527 115.477C190.471 113.124 190.324 110.463 191.114 108.008C190.103 107.181 189.048 106.248 187.941 105.289C181.475 99.1618 173.754 94.5174 165.314 91.6788C172.469 99.85 176.725 110.159 177.418 121.002C177.649 124.589 177.493 128.191 176.952 131.744C180.324 140.108 180.973 149.322 178.807 158.076C177.905 161.908 176.439 165.585 174.456 168.985C169.841 176.983 162.721 182.121 155.759 187.918C141.421 199.848 133.281 219.793 135.918 238.268C136.73 244.1 138.475 249.762 141.087 255.037C141.943 256.638 142.885 258.192 143.909 259.691C143.043 250.706 143.815 241.638 146.186 232.928Z" fill="url(#paint5_linear)"/>
<path d="M144.709 233.782C148.629 219.632 156.986 207.117 168.549 198.08C173.638 194.007 179.097 190.461 184.433 186.713C187.141 184.813 189.822 182.86 192.345 180.766C192.74 180.44 193.127 180.106 193.514 179.772C193.716 179.587 193.98 179.332 194.094 179.209C195.043 178.153 196.002 177.132 196.881 176.024C197.434 175.311 197.962 174.59 198.472 173.851L198.639 173.543C199.307 172.311 199.984 171.088 200.573 169.821C201.162 168.554 201.663 167.243 202.181 165.933C202.243 165.774 202.331 165.493 202.41 165.255C202.515 164.868 202.63 164.472 202.735 164.076C203.498 161.14 204.047 158.153 204.379 155.138C204.458 154.416 204.528 153.704 204.581 152.991C204.581 152.841 204.625 152.419 204.651 152.041C204.678 151.662 204.651 151.108 204.651 150.941C204.651 150.22 204.651 149.498 204.651 148.777C204.581 145.728 204.343 142.685 203.939 139.662C203.755 138.263 203.526 136.856 203.271 135.466C203.201 135.123 202.392 131.85 202.682 132.747C200.748 125.797 198.023 119.225 196.643 112.143C193.545 110.082 190.607 107.791 187.853 105.289C187.281 104.752 186.701 104.233 186.095 103.714C191.894 119.01 192.043 135.876 186.515 151.271C180.987 166.667 170.144 179.58 155.943 187.681L155.653 187.918C141.421 199.848 133.281 219.793 135.918 238.268C136.73 244.1 138.475 249.762 141.087 255.037C141.448 255.715 141.826 256.374 142.204 257.025C141.759 249.192 142.606 241.34 144.709 233.782Z" fill="url(#paint6_linear)"/>
<path d="M206.225 156.352H206.155C207.552 145.973 206.118 135.409 202.005 125.779C201.419 124.354 200.769 122.955 200.054 121.583C202.878 120.375 205.438 118.623 207.587 116.427C207.587 116.427 203.561 117.14 194.657 110.744C195.243 111.964 195.811 113.204 196.362 114.465C204.273 132.677 202.19 153.105 193.813 170.701C193.057 172.293 192.055 173.763 191.176 175.276C185.216 185.393 175.353 193.215 165.323 199.1L162.466 200.86C158.696 203.222 155.283 206.11 152.33 209.438C145.983 216.598 141.691 225.345 139.909 234.749C139 239.842 138.704 245.026 139.03 250.19C139.035 250.236 139.035 250.284 139.03 250.33C139.654 251.949 140.34 253.533 141.105 255.072C143.719 260.055 147.209 264.526 151.407 268.269C149.845 263.281 148.799 258.145 148.287 252.943C147.996 248.104 148.291 243.248 149.166 238.48C150.818 229.678 154.825 221.49 160.76 214.787C163.405 211.79 166.456 209.178 169.823 207.027C169.059 211.285 167.714 212.473 167.714 212.473C175.203 211.593 178.262 207.564 179.475 204.168C179.809 203.227 180.451 201.529 181.014 199.769C187.387 195.089 193.197 189.467 197.153 182.754C197.259 182.561 197.373 182.376 197.487 182.191C201.364 184.927 206.735 186.88 214.189 186.951C214.198 186.951 207.236 182.015 206.225 156.352Z" fill="url(#paint7_linear)"/>
</g>
</g>
<defs>
<filter id="filter0_d" x="0" y="-22" width="320" height="371" filterUnits="userSpaceOnUse" color-interpolation-filters="sRGB">
<feFlood flood-opacity="0" result="BackgroundImageFix"/>
<feColorMatrix in="SourceAlpha" type="matrix" values="0 0 0 0 0 0 0 0 0 0 0 0 0 0 0 0 0 0 127 0"/>
<feOffset/>
<feGaussianBlur stdDeviation="25"/>
<feColorMatrix type="matrix" values="0 0 0 0 0 0 0 0 0 0 0 0 0 0 0 0 0 0 0.25 0"/>
<feBlend mode="normal" in2="BackgroundImageFix" result="effect1_dropShadow"/>
<feBlend mode="normal" in="SourceGraphic" in2="effect1_dropShadow" result="shape"/>
</filter>
<filter id="filter1_d" x="97.864" y="77.9366" width="104.309" height="193.485" filterUnits="userSpaceOnUse" color-interpolation-filters="sRGB">
<feFlood flood-opacity="0" result="BackgroundImageFix"/>
<feColorMatrix in="SourceAlpha" type="matrix" values="0 0 0 0 0 0 0 0 0 0 0 0 0 0 0 0 0 0 127 0"/>
<feOffset dy="4"/>
<feGaussianBlur stdDeviation="2"/>
<feColorMatrix type="matrix" values="0 0 0 0 0 0 0 0 0 0 0 0 0 0 0 0 0 0 0.25 0"/>
<feBlend mode="normal" in2="BackgroundImageFix" result="effect1_dropShadow"/>
<feBlend mode="normal" in="SourceGraphic" in2="effect1_dropShadow" result="shape"/>
</filter>
<filter id="filter2_d" x="112.388" y="111.835" width="55.7657" height="114.894" filterUnits="userSpaceOnUse" color-interpolation-filters="sRGB">
<feFlood flood-opacity="0" result="BackgroundImageFix"/>
<feColorMatrix in="SourceAlpha" type="matrix" values="0 0 0 0 0 0 0 0 0 0 0 0 0 0 0 0 0 0 127 0"/>
<feOffset dy="4"/>
<feGaussianBlur stdDeviation="2"/>
<feColorMatrix type="matrix" values="0 0 0 0 0 0 0 0 0 0 0 0 0 0 0 0 0 0 0.25 0"/>
<feBlend mode="normal" in2="BackgroundImageFix" result="effect1_dropShadow"/>
<feBlend mode="normal" in="SourceGraphic" in2="effect1_dropShadow" result="shape"/>
</filter>
<filter id="filter3_dd" x="111.604" y="34.4699" width="152.586" height="258.764" filterUnits="userSpaceOnUse" color-interpolation-filters="sRGB">
<feFlood flood-opacity="0" result="BackgroundImageFix"/>
<feColorMatrix in="SourceAlpha" type="matrix" values="0 0 0 0 0 0 0 0 0 0 0 0 0 0 0 0 0 0 127 0"/>
<feOffset dx="25"/>
<feGaussianBlur stdDeviation="12.5"/>
<feColorMatrix type="matrix" values="0 0 0 0 0 0 0 0 0 0 0 0 0 0 0 0 0 0 0.25 0"/>
<feBlend mode="normal" in2="BackgroundImageFix" result="effect1_dropShadow"/>
<feColorMatrix in="SourceAlpha" type="matrix" values="0 0 0 0 0 0 0 0 0 0 0 0 0 0 0 0 0 0 127 0"/>
<feOffset dy="4"/>
<feGaussianBlur stdDeviation="2"/>
<feColorMatrix type="matrix" values="0 0 0 0 0 0 0 0 0 0 0 0 0 0 0 0 0 0 0.25 0"/>
<feBlend mode="normal" in2="effect1_dropShadow" result="effect2_dropShadow"/>
<feBlend mode="normal" in="SourceGraphic" in2="effect2_dropShadow" result="shape"/>
</filter>
<linearGradient id="paint0_linear" x1="101.899" y1="170.692" x2="214.198" y2="170.692" gradientUnits="userSpaceOnUse">
<stop stop-color="#EB7200"/>
<stop offset="0.25" stop-color="#ED7A01"/>
<stop offset="0.64" stop-color="#F19003"/>
<stop offset="1" stop-color="#F6AA06"/>
</linearGradient>
<linearGradient id="paint1_linear" x1="116.412" y1="165.282" x2="164.154" y2="165.282" gradientUnits="userSpaceOnUse">
<stop stop-color="#EB6901"/>
<stop offset="0.24" stop-color="#EC7102"/>
<stop offset="0.62" stop-color="#F18704"/>
<stop offset="1" stop-color="#F6A407"/>
</linearGradient>
<linearGradient id="paint2_linear" x1="7475.01" y1="26868.9" x2="18530.4" y2="26868.9" gradientUnits="userSpaceOnUse">
<stop stop-color="#EB6901"/>
<stop offset="0.24" stop-color="#EC7102"/>
<stop offset="0.62" stop-color="#F18704"/>
<stop offset="1" stop-color="#F6A407"/>
</linearGradient>
<linearGradient id="paint3_linear" x1="116.412" y1="182.675" x2="164.154" y2="182.675" gradientUnits="userSpaceOnUse">
<stop stop-color="#EB4900"/>
<stop offset="0.23" stop-color="#EC5101"/>
<stop offset="0.58" stop-color="#F06703"/>
<stop offset="1" stop-color="#F68A06"/>
</linearGradient>
<linearGradient id="paint4_linear" x1="6742.04" y1="24115.1" x2="14720.1" y2="24115.1" gradientUnits="userSpaceOnUse">
<stop stop-color="#EB4900"/>
<stop offset="0.23" stop-color="#EC5101"/>
<stop offset="0.58" stop-color="#F06703"/>
<stop offset="1" stop-color="#F68A06"/>
</linearGradient>
<linearGradient id="paint5_linear" x1="135.426" y1="175.689" x2="214.198" y2="175.689" gradientUnits="userSpaceOnUse">
<stop stop-color="#EB3902"/>
<stop offset="0.23" stop-color="#EC4103"/>
<stop offset="0.58" stop-color="#F05705"/>
<stop offset="1" stop-color="#F67908"/>
</linearGradient>
<linearGradient id="paint6_linear" x1="135.426" y1="180.379" x2="214.198" y2="180.379" gradientUnits="userSpaceOnUse">
<stop stop-color="#DE2D0A"/>
<stop offset="0.26" stop-color="#E0350A"/>
<stop offset="0.67" stop-color="#E74B0A"/>
<stop offset="1" stop-color="#EE620A"/>
</linearGradient>
<linearGradient id="paint7_linear" x1="146.291" y1="159.158" x2="203.38" y2="216.2" gradientUnits="userSpaceOnUse">
<stop stop-color="#EB3902"/>
<stop offset="0.19" stop-color="#E33603"/>
<stop offset="0.47" stop-color="#CD2E06"/>
<stop offset="0.83" stop-color="#A9210B"/>
<stop offset="1" stop-color="#951A0E"/>
</linearGradient>
<clipPath id="clip0">
<rect x="50" y="28" width="220" height="271" fill="white"/>
</clipPath>
</defs>
</svg>
